<svg width="360.89pt" height="345.6pt" viewBox="0 0 2407 2305" xmlns="http://www.w3.org/2000/svg" xmlns:xlink="http://www.w3.org/1999/xlink" xml:space="preserve" overflow="hidden"><g transform="translate(-925 -134)"><rect x="925" y="134" width="2337" height="2298" fill="#FFFFFF"/><path d="M1432.5 2316.5 1683.12 2316.5" stroke="#000000" stroke-width="6.875" stroke-miterlimit="8" fill="none" fill-rule="evenodd"/><path d="M0 0 1250.64 880.786" stroke="#000000" stroke-width="6.875" stroke-miterlimit="8" fill="none" fill-rule="evenodd" transform="matrix(1 0 0 -1 1432.5 2316.29)"/><path d="M0 0 1250.64 880.786" stroke="#000000" stroke-width="6.875" stroke-miterlimit="8" fill="none" fill-rule="evenodd" transform="matrix(1 0 0 -1 1682.5 2316.29)"/><path d="M2682.5 1435.5 2933.12 1435.5" stroke="#000000" stroke-width="6.875" stroke-miterlimit="8" fill="none" fill-rule="evenodd"/><path d="M0 0 0.000360892 1232.09" stroke="#000000" stroke-width="6.875" stroke-miterlimit="8" fill="none" fill-rule="evenodd" transform="matrix(1 0 0 -1 1682.5 2316.59)"/><path d="M0 0 0.000360892 1232.09" stroke="#000000" stroke-width="6.875" stroke-miterlimit="8" fill="none" fill-rule="evenodd" transform="matrix(1 0 0 -1 1433.5 2316.59)"/><path d="M1432.5 1084.5 1683.12 1084.5" stroke="#000000" stroke-width="6.875" stroke-miterlimit="8" fill="none" fill-rule="evenodd"/><path d="M0 0 1250.64 880.786" stroke="#000000" stroke-width="6.875" stroke-miterlimit="8" fill="none" fill-rule="evenodd" transform="matrix(1 0 0 -1 1432.5 1084.29)"/><path d="M0 0 1250.64 880.786" stroke="#000000" stroke-width="6.875" stroke-miterlimit="8" fill="none" fill-rule="evenodd" transform="matrix(1 0 0 -1 1682.5 1084.29)"/><path d="M2682.5 203.5 2933.12 203.5" stroke="#000000" stroke-width="6.875" stroke-miterlimit="8" fill="none" fill-rule="evenodd"/><path d="M0 0 0.000360892 1232.09" stroke="#000000" stroke-width="6.875" stroke-miterlimit="8" fill="none" fill-rule="evenodd" transform="matrix(1 0 0 -1 2930.5 1435.59)"/><path d="M0 0 0.000360892 1232.09" stroke="#000000" stroke-width="6.875" stroke-miterlimit="8" fill="none" fill-rule="evenodd" transform="matrix(1 0 0 -1 2681.5 1435.59)"/><path d="M1681.5 2313.5C1862.78 1992.04 2044.06 1670.58 2165.61 1583.53 2287.16 1496.48 2331.17 1672.68 2410.81 1791.19 2490.45 1909.71 2556.99 2033.47 2643.43 1973.69 2729.88 1860.41 2859.56 1670.06 2929.5 1432.5" stroke="#FF0000" stroke-width="6.875" stroke-miterlimit="8" fill="none" fill-rule="evenodd"/><path d="M7.89427-11.258 439.67 291.509 423.882 314.025-7.89427 11.258ZM444.201 261.099 488.066 342.238 396.835 328.647Z" transform="matrix(1 0 0 -1 1722 1266.24)"/><path d="M7.89427-11.258 439.67 291.509 423.882 314.025-7.89427 11.258ZM444.201 261.099 488.066 342.238 396.835 328.647Z" transform="matrix(1 0 0 -1 1722 1415.24)"/><path d="M2.13903-2.6909 246.813 191.804 242.535 197.186-2.13903 2.6909ZM249.643 180.879 262.614 208.755 232.53 202.407Z" fill="#AEAEAE" transform="matrix(1 0 0 -1 1295.5 2266.26)"/><path d="M4.3697e-06-3.4375 260.986-3.43717 260.986 3.43783-4.3697e-06 3.4375ZM256.402-13.7497 283.902 0.000360892 256.402 13.7503Z" fill="#AEAEAE" transform="matrix(-1 0 0 1 1295.4 2266.5)"/><path d="M3.4375-3.72184e-06 3.43784 310.404-3.43716 310.404-3.4375 3.72184e-06ZM13.7503 305.821 0.000360892 333.321-13.7497 305.821Z" fill="#AEAEAE" transform="matrix(1 0 0 -1 1295.5 2265.82)"/><path d="M1089.99 2148.42C1091.96 2148.42 1093.63 2148.68 1095.02 2149.21 1095.98 2149.59 1096.93 2150.23 1097.89 2151.11 1098.85 2152 1099.7 2153.23 1100.44 2154.81 1101.18 2156.39 1101.83 2158.16 1102.38 2160.12 1102.93 2162.08 1103.54 2164.91 1104.21 2168.59 1105.36 2174.76 1106.47 2181.26 1107.54 2188.08 1108.62 2194.9 1109.54 2201.23 1110.31 2207.06 1114.95 2200.36 1118.89 2193.81 1122.12 2187.4 1125.35 2180.98 1127.67 2175.41 1129.08 2170.67 1130.49 2165.93 1131.2 2162.08 1131.2 2159.12 1131.2 2156.87 1130.72 2155.34 1129.76 2154.52 1128.8 2153.71 1127.18 2153.23 1124.88 2153.09L1125.6 2149.57 1144.47 2149.57 1146.41 2153.16C1142.78 2163.11 1137.85 2173.76 1131.63 2185.1 1125.5 2196.2 1118.49 2207.25 1110.6 2218.26 1103.03 2228.74 1096.74 2236.32 1091.72 2241.01 1088.22 2244.22 1084.85 2246.52 1081.6 2247.9 1079.01 2248.96 1076.26 2249.48 1073.34 2249.48 1072.34 2249.48 1071.18 2249.4 1069.86 2249.23 1068.55 2249.06 1067.53 2248.84 1066.81 2248.55L1069.9 2234.63 1075.57 2234.63C1075.57 2237.69 1076.62 2239.22 1078.73 2239.22 1081.5 2239.22 1084.73 2237.48 1088.42 2234.02 1092.1 2230.55 1096.43 2225.32 1101.41 2218.33 1100.02 2209.96 1098.13 2199.86 1095.74 2188.04 1093.2 2175.41 1091.53 2167.59 1090.71 2164.57 1089.71 2160.93 1088.66 2158.61 1087.55 2157.61 1086.88 2156.99 1086.05 2156.68 1085.04 2156.68 1083.51 2156.68 1082.08 2157.3 1080.74 2158.54 1079.4 2159.79 1077.74 2161.94 1075.78 2165L1071.12 2161.92C1074.42 2156.99 1077.51 2153.51 1080.38 2151.47 1083.25 2149.44 1086.45 2148.42 1089.99 2148.42Z" fill-rule="evenodd"/><text fill="#000000" fill-opacity="0" font-family="Arial,Arial_MSFontService,sans-serif" font-size="101.062" x="1066.81" y="2236.85">𝑦</text><path d="M1540.52 1969.4C1542 1969.4 1543.3 1969.57 1544.43 1969.91 1545.55 1970.24 1546.55 1970.76 1547.41 1971.45 1548.27 1972.14 1549.04 1973.04 1549.7 1974.14 1550.37 1975.24 1551.02 1976.74 1551.64 1978.63 1552.27 1980.52 1552.85 1982.86 1553.4 1985.66 1553.95 1988.46 1554.44 1991.37 1554.87 1994.38L1555.59 1994.38C1560.18 1987.92 1563.67 1983.2 1566.03 1980.21 1568.4 1977.22 1570.4 1974.99 1572.03 1973.53 1573.65 1972.07 1575.22 1971.04 1576.73 1970.44 1578.24 1969.85 1580.23 1969.55 1582.72 1969.55 1584.97 1969.55 1586.81 1969.83 1588.25 1970.41L1585.38 1983.4 1580.35 1983.4C1580.07 1981.39 1579.23 1980.39 1577.84 1980.39 1577.41 1980.39 1576.96 1980.46 1576.48 1980.6 1576 1980.74 1575.41 1981.06 1574.72 1981.53 1574.03 1982.01 1573.01 1982.95 1571.67 1984.33 1570.33 1985.72 1568.82 1987.42 1567.15 1989.43 1565.47 1991.44 1563.75 1993.54 1561.98 1995.75L1557.1 2001.85C1557.96 2006.44 1558.77 2010.41 1559.54 2013.76 1560.3 2017.11 1560.99 2019.9 1561.58 2022.12 1562.18 2024.35 1562.71 2026.11 1563.16 2027.4 1563.62 2028.69 1564.11 2029.66 1564.63 2030.31 1565.16 2030.95 1565.7 2031.41 1566.25 2031.67 1566.8 2031.93 1567.43 2032.06 1568.15 2032.06 1569.44 2032.06 1570.7 2031.56 1571.92 2030.56 1573.14 2029.55 1574.9 2027.28 1577.2 2023.74L1581.86 2026.83C1578.51 2031.8 1575.48 2035.31 1572.78 2037.34 1570.08 2039.37 1566.86 2040.39 1563.13 2040.39 1561.07 2040.39 1559.32 2040.02 1557.89 2039.28 1556.45 2038.54 1555.21 2037.35 1554.16 2035.73 1553.1 2034.1 1552.17 2031.56 1551.36 2028.12 1549.87 2021.99 1548.96 2017.3 1548.63 2014.05L1547.91 2014.05C1542.84 2021.18 1539.07 2026.3 1536.61 2029.41 1534.14 2032.52 1532.11 2034.82 1530.5 2036.3 1528.9 2037.78 1527.35 2038.82 1525.84 2039.42 1524.33 2040.02 1522.33 2040.32 1519.85 2040.32 1517.6 2040.32 1515.75 2040.03 1514.32 2039.46L1517.19 2026.47 1522.21 2026.47C1522.5 2028.48 1523.34 2029.48 1524.73 2029.48 1525.4 2029.48 1526.1 2029.3 1526.84 2028.94 1527.59 2028.58 1528.65 2027.72 1530.04 2026.36 1531.43 2024.99 1533.34 2022.85 1535.78 2019.93 1538.22 2017.02 1541.76 2012.64 1546.4 2006.8 1545.69 2003.02 1544.94 1999.38 1544.18 1995.89 1543.41 1992.4 1542.62 1989.14 1541.81 1986.13 1541 1983.11 1540.33 1981.14 1539.8 1980.21 1539.27 1979.27 1538.71 1978.63 1538.11 1978.27 1537.51 1977.91 1536.76 1977.73 1535.85 1977.73 1534.85 1977.73 1533.94 1977.96 1533.12 1978.41 1532.31 1978.87 1531.43 1979.66 1530.47 1980.78 1529.51 1981.9 1528.24 1983.66 1526.66 1986.06L1522 1982.97C1525.01 1978.42 1527.91 1975.03 1530.68 1972.78 1533.46 1970.53 1536.74 1969.4 1540.52 1969.4Z" fill-rule="evenodd"/><text fill="#000000" fill-opacity="0" font-family="Arial,Arial_MSFontService,sans-serif" font-size="70.9878" x="1514.32" y="2031.52">𝑥</text><path d="M1259.28 1795.2 1310.31 1795.2 1311.68 1798.79 1277.44 1838.13C1270.79 1845.74 1265.02 1852.2 1260.14 1857.51L1260.57 1858.01 1276.79 1858.01C1279.66 1858.01 1281.86 1857.85 1283.39 1857.54 1284.93 1857.23 1286.27 1856.65 1287.41 1855.78 1288.56 1854.92 1289.75 1853.62 1290.97 1851.87 1292.19 1850.13 1293.71 1847.39 1295.53 1843.65L1301.91 1843.65 1297.53 1863.82 1245.57 1863.82 1244.2 1860.31 1283.47 1815.09C1289.02 1808.72 1293.08 1804.2 1295.67 1801.52L1295.24 1801.02 1278.44 1801.02C1275.95 1801.02 1274.14 1801.19 1272.99 1801.52 1271.84 1801.86 1270.69 1802.44 1269.54 1803.28 1268.39 1804.12 1267.16 1805.36 1265.85 1807.01 1264.53 1808.66 1263.06 1811.02 1261.43 1814.08L1255.04 1814.08Z" fill-rule="evenodd"/><text fill="#000000" fill-opacity="0" font-family="Arial,Arial_MSFontService,sans-serif" font-size="68.6191" x="1244.2" y="1855.25">𝑧</text><text fill="#FF0000" font-family="Aptos,Aptos_MSFontService,sans-serif" font-weight="400" font-size="83" transform="matrix(1 0 0 1 2369.8 2035)">SST</text><path d="M2153.95 809.849 2170.25 809.849 2169.8 811.834C2168.77 812.05 2168.04 812.294 2167.59 812.564 2167.15 812.834 2166.74 813.239 2166.38 813.78 2166.01 814.32 2165.65 815.164 2165.28 816.313 2164.92 817.461 2164.45 819.332 2163.88 821.926L2158.82 844.621C2158.47 846.161 2158.19 847.627 2157.99 849.018 2157.78 850.41 2157.68 851.848 2157.68 853.334 2157.68 856.279 2158.41 858.508 2159.85 860.021 2161.3 861.534 2163.48 862.291 2166.4 862.291 2169.15 862.291 2171.45 861.724 2173.29 860.589 2175.12 859.454 2176.6 857.819 2177.7 855.685 2178.81 853.55 2179.74 850.781 2180.5 847.377L2186.13 821.885C2186.73 819.183 2187.03 817.008 2187.03 815.36 2187.03 814.09 2186.71 813.206 2186.07 812.706 2185.44 812.206 2184.43 811.915 2183.05 811.834L2183.5 809.849 2198.9 809.849 2198.45 811.834C2197.45 812.05 2196.72 812.3 2196.25 812.584 2195.77 812.868 2195.35 813.28 2194.99 813.82 2194.62 814.361 2194.27 815.212 2193.91 816.373 2193.56 817.535 2193.1 819.386 2192.54 821.926L2187.27 846.202C2186.21 851.038 2184.73 854.888 2182.81 857.752 2180.89 860.616 2178.49 862.683 2175.62 863.953 2172.74 865.222 2169.22 865.857 2165.06 865.857 2160.39 865.857 2156.81 864.729 2154.32 862.473 2151.83 860.217 2150.59 856.928 2150.59 852.605 2150.59 851.092 2150.75 849.356 2151.06 847.397 2151.37 845.438 2151.81 843.23 2152.37 840.771L2156.59 821.885C2157.21 819.102 2157.52 816.927 2157.52 815.36 2157.52 814.144 2157.21 813.273 2156.59 812.746 2155.97 812.219 2154.94 811.915 2153.51 811.834Z" fill-rule="evenodd"/><text fill="#000000" fill-opacity="0" font-family="Arial,Arial_MSFontService,sans-serif" font-size="56.0088" x="2150.59" y="858.856">𝑈</text><path d="M2216.41 854.55C2215.25 854.55 2214.17 854.808 2213.16 855.325 2212.15 855.841 2211.22 856.536 2210.39 857.41 2209.55 858.283 2208.81 859.306 2208.15 860.477 2207.5 861.649 2206.95 862.89 2206.5 864.201 2206.05 865.511 2205.71 866.861 2205.47 868.251 2205.24 869.641 2205.12 870.982 2205.12 872.272 2205.12 876.502 2206.4 878.617 2208.96 878.617 2210.03 878.617 2211.1 878.294 2212.16 877.649 2213.22 877.003 2214.37 875.926 2215.6 874.417 2216.26 873.623 2216.82 872.878 2217.3 872.183 2217.78 871.488 2218.18 870.788 2218.52 870.083 2218.86 869.378 2219.15 868.629 2219.38 867.834 2219.62 867.04 2219.84 866.147 2220.04 865.154 2220.26 864.022 2220.47 862.92 2220.68 861.848 2220.89 860.775 2220.99 859.822 2220.99 858.988 2220.99 857.38 2220.61 856.238 2219.86 855.563 2219.11 854.888 2217.95 854.55 2216.41 854.55ZM2215.87 851.601C2217.42 851.601 2218.79 851.785 2219.98 852.152 2221.17 852.52 2222.25 853.021 2223.23 853.657L2226.15 851.601 2228.41 852.227C2227.87 854.769 2227.34 857.276 2226.8 859.748 2226.26 862.22 2225.72 864.727 2225.16 867.268 2224.53 870.267 2223.97 873.032 2223.49 875.564 2223.02 878.095 2222.49 880.344 2221.92 882.31 2221.34 884.276 2220.65 885.974 2219.85 887.403 2219.04 888.833 2218.01 890.024 2216.75 890.977 2215.49 891.931 2213.93 892.665 2212.09 893.182 2210.24 893.698 2207.98 893.966 2205.3 893.986 2201.17 893.986 2198.05 893.484 2195.96 892.482 2193.86 891.479 2192.82 889.935 2192.82 887.85 2192.82 887.314 2192.9 886.807 2193.07 886.331 2193.24 885.854 2193.5 885.398 2193.86 884.961 2194.22 884.524 2194.68 884.092 2195.24 883.665 2195.81 883.238 2196.48 882.786 2197.25 882.31L2199.96 884.365C2199.27 884.961 2198.8 885.527 2198.55 886.063 2198.3 886.599 2198.18 887.165 2198.18 887.761 2198.18 888.873 2198.74 889.716 2199.87 890.292 2201.01 890.868 2202.77 891.156 2205.18 891.156 2206.41 891.156 2207.52 891.067 2208.51 890.888 2209.51 890.709 2210.41 890.407 2211.24 889.98 2212.06 889.553 2212.81 888.962 2213.49 888.207 2214.16 887.453 2214.79 886.515 2215.36 885.393 2215.94 884.271 2216.48 882.846 2217 881.119 2217.52 879.391 2218.02 877.346 2218.52 874.983L2218.07 874.804C2217.02 876.174 2216.02 877.351 2215.06 878.334 2214.11 879.317 2213.17 880.121 2212.25 880.746 2211.33 881.372 2210.4 881.828 2209.47 882.116 2208.53 882.404 2207.56 882.548 2206.55 882.548 2204.22 882.548 2202.42 881.704 2201.14 880.016 2199.86 878.329 2199.22 875.857 2199.22 872.6 2199.22 870.753 2199.42 868.946 2199.81 867.179 2200.21 865.412 2200.78 863.744 2201.51 862.175 2202.25 860.607 2203.13 859.172 2204.15 857.871 2205.17 856.571 2206.3 855.454 2207.54 854.52 2208.79 853.587 2210.11 852.867 2211.51 852.361 2212.91 851.855 2214.36 851.601 2215.87 851.601Z" fill-rule="evenodd"/><text fill="#000000" fill-opacity="0" font-family="Arial,Arial_MSFontService,sans-serif" font-size="42.3843" x="2192.82" y="888.688">𝑔</text><path d="M2264.94 847.174 2314.87 847.174 2314.87 852.564 2264.94 852.564ZM2264.94 830.355 2314.87 830.355 2314.87 835.745 2264.94 835.745Z" fill-rule="evenodd"/><text fill="#000000" fill-opacity="0" font-family="Arial,Arial_MSFontService,sans-serif" font-size="22.209" x="2264.94" y="849.788">=</text><path d="M2412.68 812.645C2410.81 812.645 2409.25 813.199 2407.99 814.307 2406.74 815.414 2405.73 817.008 2404.96 819.089 2404.19 821.169 2403.64 823.702 2403.31 826.688 2402.99 829.673 2402.83 833.044 2402.83 836.799 2402.83 845.607 2403.65 852.071 2405.28 856.192 2406.91 860.312 2409.45 862.372 2412.88 862.372 2416.15 862.372 2418.57 860.433 2420.15 856.556 2421.73 852.679 2422.52 846.674 2422.52 838.542 2422.52 832.328 2422.12 827.296 2421.31 823.445 2420.5 819.595 2419.37 816.833 2417.92 815.158 2416.48 813.482 2414.73 812.645 2412.68 812.645ZM2412.88 809.2C2418.8 809.2 2423.2 811.483 2426.09 816.049 2428.98 820.615 2430.43 827.518 2430.43 836.759 2430.43 846.323 2428.88 853.557 2425.79 858.461 2422.69 863.365 2418.17 865.817 2412.23 865.817 2406.39 865.817 2402.05 863.52 2399.2 858.927 2396.35 854.334 2394.92 847.363 2394.92 838.015 2394.92 833.044 2395.36 828.748 2396.24 825.127 2397.12 821.507 2398.35 818.515 2399.93 816.151 2401.51 813.786 2403.41 812.037 2405.62 810.902 2407.84 809.767 2410.26 809.2 2412.88 809.2ZM2367 809.2C2372.03 809.2 2375.82 810.301 2378.39 812.503 2380.95 814.705 2382.24 817.9 2382.24 822.088 2382.24 823.52 2382.1 824.837 2381.81 826.039 2381.53 827.242 2381.08 828.43 2380.48 829.606 2379.87 830.781 2379.05 832.044 2378.02 833.395 2377 834.746 2375.86 836.117 2374.62 837.508 2373.38 838.9 2371.23 841.217 2368.18 844.459 2363.04 849.89 2359.27 854.631 2356.87 858.684L2372.15 858.684C2373.47 858.684 2374.54 858.603 2375.35 858.441 2376.16 858.279 2376.81 858.008 2377.29 857.63 2377.78 857.252 2378.17 856.759 2378.45 856.151 2378.73 855.543 2379.09 854.604 2379.52 853.334L2382.97 853.334 2382.28 865.168 2348.92 865.168 2348.92 863.223C2350.09 860.386 2351.65 857.482 2353.63 854.51 2355.6 851.538 2358.39 848.039 2362.02 844.013 2365.15 840.555 2367.41 837.934 2368.78 836.151 2370.3 834.205 2371.42 832.524 2372.17 831.105 2372.91 829.687 2373.44 828.349 2373.77 827.093 2374.09 825.837 2374.25 824.573 2374.25 823.304 2374.25 821.277 2373.93 819.487 2373.28 817.934 2372.63 816.38 2371.64 815.158 2370.3 814.266 2368.97 813.374 2367.28 812.929 2365.26 812.929 2360.2 812.929 2356.8 815.738 2355.04 821.358L2350.14 821.358 2350.14 813.577C2353.41 812.037 2356.47 810.922 2359.32 810.234 2362.17 809.545 2364.73 809.2 2367 809.2Z" fill-rule="evenodd"/><text fill="#000000" fill-opacity="0" font-family="Arial,Arial_MSFontService,sans-serif" font-size="56.6167" x="2348.92" y="858.74">20</text><path d="M2466.46 825.735C2468.17 825.735 2469.51 826.296 2470.5 827.417 2471.48 828.538 2471.97 830.004 2471.97 831.814 2471.97 833.3 2471.66 834.881 2471.04 836.556L2471.53 836.718C2474.01 833.017 2476.49 830.268 2478.95 828.471 2481.4 826.674 2483.89 825.776 2486.4 825.776 2489 825.776 2490.97 826.512 2492.32 827.984 2493.67 829.457 2494.35 831.585 2494.35 834.368L2494.35 834.935C2494.35 835.124 2494.33 835.327 2494.31 835.543 2496.63 832.247 2498.95 829.795 2501.26 828.187 2503.57 826.58 2505.96 825.776 2508.45 825.776 2510.93 825.776 2512.85 826.492 2514.2 827.924 2515.55 829.356 2516.23 831.369 2516.23 833.962 2516.23 835.664 2515.84 838.083 2515.06 841.217L2512.42 851.835C2511.69 854.78 2511.33 856.86 2511.33 858.076 2511.33 859.157 2511.5 859.94 2511.85 860.427 2512.2 860.913 2512.76 861.156 2513.52 861.156 2514.33 861.156 2515.19 860.825 2516.11 860.163 2517.03 859.501 2518.32 858.238 2520 856.374L2522.31 858.643C2519.99 861.102 2517.96 862.912 2516.23 864.074 2514.5 865.236 2512.53 865.817 2510.31 865.817 2508.56 865.817 2507.15 865.189 2506.1 863.932 2505.04 862.676 2504.52 861.075 2504.52 859.13 2504.52 857.374 2504.96 854.793 2505.86 851.389L2507.64 844.378C2508.29 841.838 2508.71 839.96 2508.92 838.745 2509.12 837.529 2509.22 836.543 2509.22 835.786 2509.22 833.922 2508.91 832.578 2508.29 831.754 2507.67 830.93 2506.65 830.517 2505.25 830.517 2504.11 830.517 2502.9 830.943 2501.6 831.794 2500.3 832.645 2498.94 833.969 2497.51 835.766 2496.07 837.562 2494.91 839.332 2494 841.075 2493.1 842.818 2492.37 844.945 2491.83 847.458L2488.15 865.168 2481.13 865.168 2485.79 844.58C2486.36 842.068 2486.75 840.21 2486.95 839.008 2487.15 837.806 2487.25 836.772 2487.25 835.908 2487.25 833.962 2486.91 832.578 2486.22 831.754 2485.53 830.93 2484.46 830.517 2483 830.517 2481.97 830.517 2480.8 830.943 2479.49 831.794 2478.18 832.645 2476.78 834.01 2475.3 835.887 2473.81 837.765 2472.65 839.569 2471.81 841.298 2470.97 843.027 2470.27 845.134 2469.71 847.62L2465.85 865.168 2458.84 865.168 2464.76 839.474C2465.36 836.88 2465.65 834.881 2465.65 833.476 2465.65 832.395 2465.48 831.612 2465.13 831.125 2464.77 830.639 2464.22 830.396 2463.46 830.396 2462.63 830.396 2461.74 830.74 2460.81 831.429 2459.88 832.118 2458.6 833.368 2456.98 835.178L2454.67 832.909C2457.05 830.423 2459.09 828.606 2460.81 827.458 2462.52 826.309 2464.41 825.735 2466.46 825.735Z" fill-rule="evenodd"/><text fill="#000000" fill-opacity="0" font-family="Arial,Arial_MSFontService,sans-serif" font-size="40.0815" x="2454.67" y="860.807">𝑚</text><path d="M2556.29 807.174 2562.58 807.174 2533.32 882.595 2526.95 882.595Z" fill-rule="evenodd"/><text fill="#000000" fill-opacity="0" font-family="Arial,Arial_MSFontService,sans-serif" font-size="75.4214" x="2526.95" y="873.167">/</text><path d="M2587.73 825.776C2590.24 825.776 2592.53 825.924 2594.6 826.222 2596.67 826.519 2598.73 827.032 2600.78 827.762L2598.96 836.272 2595.68 836.272C2595.38 833.868 2594.59 832.044 2593.3 830.801 2592.02 829.558 2590 828.937 2587.25 828.937 2585.11 828.937 2583.38 829.484 2582.06 830.578 2580.73 831.672 2580.07 833.111 2580.07 834.894 2580.07 835.867 2580.24 836.725 2580.58 837.468 2580.92 838.211 2581.6 839.028 2582.63 839.92 2583.65 840.811 2585.25 841.906 2587.41 843.203 2589.11 844.229 2590.47 845.168 2591.5 846.019 2592.53 846.87 2593.34 847.715 2593.93 848.552 2594.53 849.39 2594.96 850.275 2595.23 851.207 2595.5 852.139 2595.63 853.267 2595.63 854.591 2595.63 856.995 2594.99 859.055 2593.71 860.771 2592.43 862.487 2590.68 863.763 2588.48 864.601 2586.28 865.439 2583.77 865.857 2580.96 865.857 2578.72 865.857 2576.52 865.688 2574.36 865.351 2572.2 865.013 2569.79 864.439 2567.14 863.628L2569.09 854.793 2572.25 854.793C2572.36 857.387 2573.09 859.346 2574.44 860.67 2575.79 861.994 2577.94 862.656 2580.88 862.656 2583.45 862.656 2585.46 862.081 2586.9 860.933 2588.35 859.785 2589.07 858.157 2589.07 856.05 2589.07 854.834 2588.87 853.787 2588.46 852.909 2588.06 852.031 2587.39 851.186 2586.48 850.376 2585.56 849.565 2584.1 848.552 2582.1 847.336 2579.99 846.066 2578.35 844.918 2577.17 843.891 2576 842.865 2575.11 841.75 2574.52 840.548 2573.93 839.346 2573.63 837.961 2573.63 836.394 2573.63 834.259 2574.2 832.388 2575.35 830.781 2576.5 829.173 2578.14 827.937 2580.27 827.073 2582.41 826.208 2584.9 825.776 2587.73 825.776Z" fill-rule="evenodd"/><text fill="#000000" fill-opacity="0" font-family="Arial,Arial_MSFontService,sans-serif" font-size="40.0815" x="2567.14" y="860.847">𝑠</text><text font-family="Aptos,Aptos_MSFontService,sans-serif" font-weight="400" font-size="128" transform="matrix(1 0 0 1 1547.01 435)">(a)</text><path d="M1203.29 2359.92C1204.39 2359.92 1205.34 2360.06 1206.12 2360.36 1206.66 2360.58 1207.2 2360.94 1207.74 2361.44 1208.28 2361.93 1208.76 2362.63 1209.18 2363.52 1209.6 2364.41 1209.97 2365.41 1210.28 2366.52 1210.59 2367.63 1210.93 2369.22 1211.31 2371.3 1211.96 2374.79 1212.59 2378.46 1213.2 2382.31 1213.8 2386.16 1214.32 2389.73 1214.76 2393.03 1217.38 2389.24 1219.6 2385.54 1221.42 2381.92 1223.25 2378.3 1224.56 2375.15 1225.35 2372.48 1226.15 2369.8 1226.55 2367.63 1226.55 2365.95 1226.55 2364.68 1226.28 2363.82 1225.74 2363.36 1225.2 2362.9 1224.28 2362.63 1222.98 2362.55L1223.39 2360.56 1234.05 2360.56 1235.14 2362.59C1233.09 2368.21 1230.3 2374.22 1226.79 2380.62 1223.33 2386.89 1219.38 2393.13 1214.92 2399.35 1210.65 2405.27 1207.1 2409.55 1204.26 2412.2 1202.29 2414.01 1200.38 2415.3 1198.54 2416.09 1197.09 2416.68 1195.53 2416.98 1193.88 2416.98 1193.32 2416.98 1192.66 2416.93 1191.92 2416.84 1191.18 2416.74 1190.6 2416.61 1190.2 2416.45L1191.94 2408.59 1195.14 2408.59C1195.14 2410.32 1195.73 2411.18 1196.92 2411.18 1198.49 2411.18 1200.31 2410.2 1202.39 2408.24 1204.48 2406.29 1206.92 2403.33 1209.73 2399.39 1208.95 2394.66 1207.88 2388.96 1206.53 2382.29 1205.1 2375.15 1204.15 2370.74 1203.69 2369.03 1203.12 2366.98 1202.53 2365.67 1201.91 2365.1 1201.53 2364.75 1201.06 2364.58 1200.49 2364.58 1199.63 2364.58 1198.81 2364.93 1198.06 2365.63 1197.3 2366.33 1196.37 2367.55 1195.26 2369.28L1192.63 2367.53C1194.49 2364.75 1196.23 2362.79 1197.86 2361.64 1199.48 2360.49 1201.29 2359.92 1203.29 2359.92Z" fill-rule="evenodd"/><text fill="#000000" fill-opacity="0" font-family="Arial,Arial_MSFontService,sans-serif" font-size="57.0625" x="1190.2" y="2409.84">𝑦</text><path d="M1266.69 2381.31 1316.62 2381.31 1316.62 2386.7 1266.69 2386.7ZM1266.69 2364.49 1316.62 2364.49 1316.62 2369.89 1266.69 2369.89Z" fill-rule="evenodd"/><text fill="#000000" fill-opacity="0" font-family="Arial,Arial_MSFontService,sans-serif" font-size="22.209" x="1266.69" y="2383.93">=</text><path d="M1370.13 2352.3 1354.69 2392.82 1382.9 2392.82ZM1368.71 2343.34 1374.71 2343.34 1391.81 2396.71 1391.81 2399.31 1347.51 2399.31 1347.51 2396.71Z" fill-rule="evenodd"/><text fill="#000000" fill-opacity="0" font-family="Arial,Arial_MSFontService,sans-serif" font-size="55.9683" x="1347.51" y="2392.31">Δ</text><path d="M1408.09 2359.92C1409.2 2359.92 1410.15 2360.06 1410.93 2360.36 1411.47 2360.58 1412.01 2360.94 1412.55 2361.44 1413.09 2361.93 1413.57 2362.63 1413.99 2363.52 1414.41 2364.41 1414.77 2365.41 1415.08 2366.52 1415.39 2367.63 1415.74 2369.22 1416.12 2371.3 1416.77 2374.79 1417.39 2378.46 1418 2382.31 1418.61 2386.16 1419.13 2389.73 1419.56 2393.03 1422.18 2389.24 1424.4 2385.54 1426.23 2381.92 1428.05 2378.3 1429.36 2375.15 1430.16 2372.48 1430.96 2369.8 1431.36 2367.63 1431.36 2365.95 1431.36 2364.68 1431.09 2363.82 1430.54 2363.36 1430 2362.9 1429.09 2362.63 1427.79 2362.55L1428.19 2360.56 1438.85 2360.56 1439.95 2362.59C1437.89 2368.21 1435.11 2374.22 1431.6 2380.62 1428.14 2386.89 1424.18 2393.13 1419.72 2399.35 1415.45 2405.27 1411.9 2409.55 1409.07 2412.2 1407.09 2414.01 1405.19 2415.3 1403.35 2416.09 1401.89 2416.68 1400.34 2416.98 1398.69 2416.98 1398.12 2416.98 1397.47 2416.93 1396.72 2416.84 1395.98 2416.74 1395.41 2416.61 1395 2416.45L1396.74 2408.59 1399.95 2408.59C1399.95 2410.32 1400.54 2411.18 1401.73 2411.18 1403.3 2411.18 1405.12 2410.2 1407.2 2408.24 1409.28 2406.29 1411.73 2403.33 1414.54 2399.39 1413.75 2394.66 1412.69 2388.96 1411.33 2382.29 1409.9 2375.15 1408.96 2370.74 1408.5 2369.03 1407.93 2366.98 1407.34 2365.67 1406.71 2365.1 1406.34 2364.75 1405.86 2364.58 1405.3 2364.58 1404.43 2364.58 1403.62 2364.93 1402.86 2365.63 1402.11 2366.33 1401.18 2367.55 1400.07 2369.28L1397.43 2367.53C1399.3 2364.75 1401.04 2362.79 1402.66 2361.64 1404.28 2360.49 1406.09 2359.92 1408.09 2359.92Z" fill-rule="evenodd"/><text fill="#000000" fill-opacity="0" font-family="Arial,Arial_MSFontService,sans-serif" font-size="57.0625" x="1395" y="2409.84">𝑦</text><path d="M1621.58 2359.96C1622.42 2359.96 1623.16 2360.05 1623.79 2360.24 1624.43 2360.43 1624.99 2360.72 1625.47 2361.11 1625.96 2361.51 1626.39 2362.01 1626.77 2362.63 1627.15 2363.26 1627.51 2364.1 1627.86 2365.17 1628.21 2366.23 1628.55 2367.56 1628.86 2369.14 1629.17 2370.72 1629.44 2372.36 1629.69 2374.06L1630.09 2374.06C1632.69 2370.42 1634.65 2367.75 1635.99 2366.06 1637.33 2364.37 1638.45 2363.11 1639.37 2362.29 1640.29 2361.47 1641.18 2360.88 1642.03 2360.55 1642.88 2360.21 1644.01 2360.04 1645.41 2360.04 1646.68 2360.04 1647.72 2360.2 1648.53 2360.53L1646.91 2367.86 1644.07 2367.86C1643.91 2366.73 1643.44 2366.16 1642.66 2366.16 1642.41 2366.16 1642.16 2366.2 1641.89 2366.28 1641.62 2366.36 1641.28 2366.54 1640.89 2366.81 1640.5 2367.08 1639.93 2367.61 1639.17 2368.39 1638.41 2369.17 1637.56 2370.13 1636.62 2371.27 1635.67 2372.4 1634.7 2373.59 1633.7 2374.83L1630.94 2378.28C1631.43 2380.87 1631.89 2383.11 1632.32 2385 1632.75 2386.9 1633.14 2388.47 1633.48 2389.73 1633.81 2390.98 1634.11 2391.98 1634.37 2392.71 1634.62 2393.43 1634.9 2393.98 1635.2 2394.35 1635.5 2394.71 1635.8 2394.97 1636.11 2395.12 1636.42 2395.27 1636.78 2395.34 1637.18 2395.34 1637.91 2395.34 1638.62 2395.06 1639.31 2394.49 1640 2393.92 1640.99 2392.64 1642.29 2390.64L1644.93 2392.38C1643.03 2395.19 1641.33 2397.17 1639.8 2398.32 1638.27 2399.47 1636.46 2400.04 1634.35 2400.04 1633.19 2400.04 1632.2 2399.83 1631.39 2399.41 1630.58 2398.99 1629.88 2398.32 1629.28 2397.41 1628.69 2396.49 1628.16 2395.06 1627.7 2393.11 1626.86 2389.65 1626.35 2387 1626.16 2385.17L1625.76 2385.17C1622.89 2389.19 1620.76 2392.08 1619.37 2393.84 1617.98 2395.6 1616.83 2396.89 1615.93 2397.73 1615.02 2398.57 1614.14 2399.16 1613.29 2399.49 1612.44 2399.83 1611.31 2400 1609.91 2400 1608.64 2400 1607.6 2399.84 1606.79 2399.51L1608.41 2392.18 1611.25 2392.18C1611.41 2393.31 1611.88 2393.88 1612.67 2393.88 1613.04 2393.88 1613.44 2393.78 1613.86 2393.58 1614.28 2393.37 1614.88 2392.89 1615.66 2392.12 1616.45 2391.35 1617.53 2390.14 1618.91 2388.49 1620.28 2386.84 1622.28 2384.37 1624.9 2381.07 1624.5 2378.94 1624.08 2376.89 1623.65 2374.91 1623.22 2372.94 1622.77 2371.1 1622.31 2369.4 1621.85 2367.7 1621.47 2366.59 1621.18 2366.06 1620.88 2365.53 1620.56 2365.17 1620.22 2364.96 1619.89 2364.76 1619.46 2364.66 1618.95 2364.66 1618.38 2364.66 1617.87 2364.79 1617.41 2365.05 1616.95 2365.3 1616.45 2365.75 1615.91 2366.38 1615.37 2367.02 1614.65 2368.01 1613.76 2369.36L1611.13 2367.62C1612.83 2365.05 1614.46 2363.13 1616.03 2361.86 1617.6 2360.59 1619.45 2359.96 1621.58 2359.96Z" fill-rule="evenodd"/><text fill="#000000" fill-opacity="0" font-family="Arial,Arial_MSFontService,sans-serif" font-size="40.0815" x="1606.79" y="2395.03">𝑥</text><path d="M1681.14 2381.4 1731.07 2381.4 1731.07 2386.79 1681.14 2386.79ZM1681.14 2364.58 1731.07 2364.58 1731.07 2369.97 1681.14 2369.97Z" fill-rule="evenodd"/><text fill="#000000" fill-opacity="0" font-family="Arial,Arial_MSFontService,sans-serif" font-size="22.209" x="1681.14" y="2384.01">=</text><path d="M1773.27 2360C1774.38 2360 1775.32 2360.15 1776.11 2360.45 1776.65 2360.66 1777.19 2361.02 1777.73 2361.52 1778.27 2362.02 1778.75 2362.71 1779.16 2363.61 1779.58 2364.5 1779.95 2365.5 1780.26 2366.61 1780.57 2367.71 1780.91 2369.31 1781.29 2371.39 1781.94 2374.87 1782.57 2378.54 1783.18 2382.39 1783.79 2386.24 1784.31 2389.81 1784.74 2393.11 1787.36 2389.33 1789.58 2385.63 1791.4 2382.01 1793.23 2378.39 1794.54 2375.24 1795.34 2372.56 1796.13 2369.89 1796.53 2367.71 1796.53 2366.04 1796.53 2364.77 1796.26 2363.9 1795.72 2363.44 1795.18 2362.99 1794.26 2362.71 1792.96 2362.63L1793.37 2360.65 1804.03 2360.65 1805.12 2362.67C1803.07 2368.29 1800.29 2374.31 1796.77 2380.71 1793.32 2386.98 1789.36 2393.22 1784.9 2399.43 1780.63 2405.35 1777.08 2409.63 1774.24 2412.28 1772.27 2414.09 1770.36 2415.39 1768.53 2416.17 1767.07 2416.76 1765.51 2417.06 1763.87 2417.06 1763.3 2417.06 1762.64 2417.01 1761.9 2416.92 1761.16 2416.83 1760.58 2416.7 1760.18 2416.54L1761.92 2408.67 1765.12 2408.67C1765.12 2410.4 1765.72 2411.27 1766.91 2411.27 1768.47 2411.27 1770.3 2410.29 1772.38 2408.33 1774.46 2406.37 1776.9 2403.42 1779.71 2399.47 1778.93 2394.74 1777.86 2389.04 1776.51 2382.37 1775.08 2375.24 1774.13 2370.82 1773.67 2369.12 1773.11 2367.06 1772.51 2365.75 1771.89 2365.19 1771.51 2364.84 1771.04 2364.66 1770.47 2364.66 1769.61 2364.66 1768.8 2365.01 1768.04 2365.71 1767.28 2366.42 1766.35 2367.63 1765.24 2369.36L1762.61 2367.62C1764.47 2364.84 1766.22 2362.87 1767.84 2361.72 1769.46 2360.57 1771.27 2360 1773.27 2360Z" fill-rule="evenodd"/><text fill="#000000" fill-opacity="0" font-family="Arial,Arial_MSFontService,sans-serif" font-size="57.0625" x="1760.18" y="2409.93">𝑦</text><path d="M1836.68 2381.4 1886.61 2381.4 1886.61 2386.79 1836.68 2386.79ZM1836.68 2364.58 1886.61 2364.58 1886.61 2369.97 1836.68 2369.97Z" fill-rule="evenodd"/><text fill="#000000" fill-opacity="0" font-family="Arial,Arial_MSFontService,sans-serif" font-size="22.209" x="1836.68" y="2384.01">=</text><path d="M1924.95 2360.65 1953.77 2360.65 1954.54 2362.67 1935.21 2384.88C1931.45 2389.18 1928.2 2392.83 1925.44 2395.83L1925.68 2396.11 1934.84 2396.11C1936.46 2396.11 1937.71 2396.02 1938.57 2395.85 1939.44 2395.67 1940.19 2395.34 1940.84 2394.85 1941.49 2394.37 1942.16 2393.63 1942.85 2392.64 1943.54 2391.66 1944.39 2390.11 1945.42 2388L1949.03 2388 1946.55 2399.39 1917.21 2399.39 1916.44 2397.41 1938.61 2371.87C1941.75 2368.28 1944.04 2365.73 1945.5 2364.21L1945.26 2363.93 1935.77 2363.93C1934.37 2363.93 1933.34 2364.03 1932.69 2364.21 1932.05 2364.4 1931.4 2364.73 1930.75 2365.21 1930.1 2365.68 1929.4 2366.38 1928.66 2367.31 1927.92 2368.25 1927.09 2369.58 1926.17 2371.31L1922.56 2371.31Z" fill-rule="evenodd"/><text fill="#000000" fill-opacity="0" font-family="Arial,Arial_MSFontService,sans-serif" font-size="38.7441" x="1916.44" y="2394.55">𝑧</text><path d="M1985.91 2381.4 2035.84 2381.4 2035.84 2386.79 1985.91 2386.79ZM1985.91 2364.58 2035.84 2364.58 2035.84 2369.97 1985.91 2369.97Z" fill-rule="evenodd"/><text fill="#000000" fill-opacity="0" font-family="Arial,Arial_MSFontService,sans-serif" font-size="22.209" x="1985.91" y="2384.01">=</text><path d="M2087.64 2346.87C2085.78 2346.87 2084.22 2347.42 2082.96 2348.53 2081.7 2349.64 2080.69 2351.23 2079.92 2353.31 2079.15 2355.39 2078.6 2357.93 2078.28 2360.91 2077.96 2363.9 2077.79 2367.27 2077.79 2371.02 2077.79 2379.83 2078.61 2386.29 2080.25 2390.42 2081.88 2394.54 2084.41 2396.6 2087.84 2396.6 2091.11 2396.6 2093.54 2394.66 2095.12 2390.78 2096.7 2386.9 2097.49 2380.9 2097.49 2372.77 2097.49 2366.55 2097.08 2361.52 2096.27 2357.67 2095.46 2353.82 2094.34 2351.06 2092.89 2349.38 2091.44 2347.71 2089.7 2346.87 2087.64 2346.87ZM2087.84 2343.42C2093.76 2343.42 2098.17 2345.71 2101.06 2350.27 2103.95 2354.84 2105.39 2361.74 2105.39 2370.98 2105.39 2380.55 2103.85 2387.78 2100.75 2392.68 2097.66 2397.59 2093.14 2400.04 2087.2 2400.04 2081.36 2400.04 2077.02 2397.74 2074.17 2393.15 2071.32 2388.56 2069.89 2381.59 2069.89 2372.24 2069.89 2367.27 2070.33 2362.97 2071.21 2359.35 2072.09 2355.73 2073.32 2352.74 2074.9 2350.37 2076.48 2348.01 2078.37 2346.26 2080.59 2345.13 2082.81 2343.99 2085.22 2343.42 2087.84 2343.42Z" fill-rule="evenodd"/><text fill="#000000" fill-opacity="0" font-family="Arial,Arial_MSFontService,sans-serif" font-size="56.6167" x="2069.89" y="2392.96">0</text><path d="M2991.21 1419.81C2992.04 1419.81 2992.78 1419.9 2993.42 1420.09 2994.05 1420.28 2994.61 1420.57 2995.1 1420.96 2995.58 1421.35 2996.02 1421.86 2996.39 1422.48 2996.77 1423.1 2997.14 1423.95 2997.49 1425.01 2997.84 1426.08 2998.17 1427.41 2998.48 1428.99 2998.79 1430.57 2999.07 1432.21 2999.31 1433.91L2999.72 1433.91C3002.31 1430.26 3004.28 1427.59 3005.61 1425.91 3006.95 1424.22 3008.08 1422.96 3009 1422.14 3009.92 1421.31 3010.8 1420.73 3011.65 1420.39 3012.5 1420.06 3013.63 1419.89 3015.04 1419.89 3016.31 1419.89 3017.35 1420.05 3018.16 1420.37L3016.54 1427.71 3013.7 1427.71C3013.54 1426.57 3013.06 1426.01 3012.28 1426.01 3012.04 1426.01 3011.78 1426.05 3011.51 1426.13 3011.24 1426.21 3010.91 1426.39 3010.52 1426.66 3010.13 1426.93 3009.55 1427.45 3008.8 1428.24 3008.04 1429.02 3007.19 1429.98 3006.24 1431.11 3005.3 1432.25 3004.32 1433.44 3003.32 1434.68L3000.57 1438.12C3001.06 1440.72 3001.51 1442.96 3001.95 1444.85 3002.38 1446.74 3002.76 1448.32 3003.1 1449.57 3003.44 1450.83 3003.74 1451.82 3003.99 1452.55 3004.25 1453.28 3004.53 1453.83 3004.82 1454.19 3005.12 1454.56 3005.43 1454.82 3005.74 1454.96 3006.05 1455.11 3006.4 1455.19 3006.81 1455.19 3007.54 1455.19 3008.25 1454.9 3008.94 1454.34 3009.63 1453.77 3010.62 1452.49 3011.92 1450.49L3014.55 1452.23C3012.66 1455.04 3010.95 1457.02 3009.42 1458.17 3007.9 1459.31 3006.08 1459.89 3003.97 1459.89 3002.81 1459.89 3001.83 1459.68 3001.01 1459.26 3000.2 1458.84 2999.5 1458.17 2998.91 1457.25 2998.31 1456.34 2997.79 1454.9 2997.33 1452.96 2996.49 1449.5 2995.98 1446.85 2995.79 1445.01L2995.38 1445.01C2992.52 1449.04 2990.39 1451.93 2989 1453.69 2987.61 1455.44 2986.46 1456.74 2985.55 1457.58 2984.65 1458.42 2983.77 1459 2982.92 1459.34 2982.07 1459.68 2980.94 1459.85 2979.54 1459.85 2978.27 1459.85 2977.23 1459.69 2976.41 1459.36L2978.04 1452.03 2980.87 1452.03C2981.03 1453.16 2981.51 1453.73 2982.29 1453.73 2982.67 1453.73 2983.07 1453.63 2983.49 1453.42 2983.91 1453.22 2984.51 1452.74 2985.29 1451.97 2986.07 1451.2 2987.15 1449.99 2988.53 1448.34 2989.91 1446.69 2991.91 1444.22 2994.53 1440.92 2994.12 1438.79 2993.71 1436.73 2993.27 1434.76 2992.84 1432.79 2992.4 1430.95 2991.94 1429.25 2991.48 1427.55 2991.1 1426.43 2990.8 1425.91 2990.5 1425.38 2990.19 1425.01 2989.85 1424.81 2989.51 1424.61 2989.09 1424.51 2988.57 1424.51 2988.01 1424.51 2987.49 1424.64 2987.03 1424.89 2986.57 1425.15 2986.07 1425.6 2985.53 1426.23 2984.99 1426.87 2984.28 1427.86 2983.39 1429.21L2980.75 1427.47C2982.45 1424.9 2984.09 1422.98 2985.65 1421.71 2987.22 1420.44 2989.07 1419.81 2991.21 1419.81Z" fill-rule="evenodd"/><text fill="#000000" fill-opacity="0" font-family="Arial,Arial_MSFontService,sans-serif" font-size="40.0815" x="2976.41" y="1454.88">𝑥</text><path d="M3050.77 1441.25 3100.7 1441.25 3100.7 1446.64 3050.77 1446.64ZM3050.77 1424.43 3100.7 1424.43 3100.7 1429.82 3050.77 1429.82Z" fill-rule="evenodd"/><text fill="#000000" fill-opacity="0" font-family="Arial,Arial_MSFontService,sans-serif" font-size="22.209" x="3050.77" y="1443.86">=</text><path d="M3142.45 1403.92 3158.66 1403.92 3158.21 1405.91C3157.19 1406.12 3156.45 1406.37 3156 1406.64 3155.56 1406.91 3155.16 1407.31 3154.81 1407.85 3154.46 1408.39 3154.09 1409.24 3153.71 1410.38 3153.34 1411.53 3152.86 1413.4 3152.3 1416L3143.62 1455.51 3153.59 1455.51C3155.4 1455.51 3156.83 1455.34 3157.87 1454.98 3158.91 1454.63 3159.89 1453.99 3160.83 1453.06 3161.76 1452.13 3162.67 1450.86 3163.56 1449.27 3164.45 1447.68 3165.36 1445.69 3166.28 1443.31L3170.21 1443.31 3166.12 1459.24 3131.83 1459.24 3132.28 1457.25C3133.3 1457.09 3134.07 1456.83 3134.59 1456.46 3135.1 1456.1 3135.53 1455.59 3135.88 1454.94 3136.23 1454.3 3136.56 1453.51 3136.85 1452.57 3137.15 1451.64 3137.6 1449.84 3138.19 1447.16L3145.08 1415.96C3145.68 1413.25 3145.97 1411.08 3145.97 1409.43 3145.97 1408.16 3145.66 1407.28 3145.02 1406.78 3144.39 1406.28 3143.38 1405.99 3142 1405.91Z" fill-rule="evenodd"/><text fill="#000000" fill-opacity="0" font-family="Arial,Arial_MSFontService,sans-serif" font-size="55.3198" x="3131.83" y="1452.32">𝐿</text><path d="M1183.28 1071.95 1212.09 1071.95 1212.86 1073.97 1193.53 1096.18C1189.78 1100.48 1186.52 1104.13 1183.77 1107.12L1184.01 1107.41 1193.17 1107.41C1194.79 1107.41 1196.03 1107.32 1196.9 1107.15 1197.76 1106.97 1198.52 1106.64 1199.17 1106.15 1199.81 1105.67 1200.48 1104.93 1201.17 1103.94 1201.86 1102.96 1202.72 1101.41 1203.75 1099.3L1207.35 1099.3 1204.88 1110.69 1175.54 1110.69 1174.77 1108.71 1196.94 1083.17C1200.07 1079.58 1202.37 1077.03 1203.83 1075.51L1203.58 1075.23 1194.1 1075.23C1192.7 1075.23 1191.67 1075.32 1191.02 1075.51 1190.37 1075.7 1189.72 1076.03 1189.07 1076.51 1188.43 1076.98 1187.73 1077.68 1186.99 1078.61 1186.24 1079.55 1185.41 1080.88 1184.5 1082.61L1180.89 1082.61Z" fill-rule="evenodd"/><text fill="#000000" fill-opacity="0" font-family="Arial,Arial_MSFontService,sans-serif" font-size="38.7441" x="1174.77" y="1105.85">𝑧</text><path d="M1244.24 1092.7 1294.17 1092.7 1294.17 1098.09 1244.24 1098.09ZM1244.24 1075.88 1294.17 1075.88 1294.17 1081.27 1244.24 1081.27Z" fill-rule="evenodd"/><text fill="#000000" fill-opacity="0" font-family="Arial,Arial_MSFontService,sans-serif" font-size="22.209" x="1244.24" y="1095.31">=</text><path d="M1335.92 1055.37 1352.13 1055.37 1351.68 1057.36C1350.66 1057.57 1349.92 1057.82 1349.47 1058.09 1349.03 1058.36 1348.63 1058.76 1348.28 1059.3 1347.93 1059.84 1347.56 1060.69 1347.18 1061.84 1346.81 1062.98 1346.33 1064.85 1345.77 1067.45L1343.01 1079.85 1364.77 1079.85 1367.53 1067.41C1367.77 1066.3 1367.98 1065.12 1368.16 1063.86 1368.33 1062.61 1368.42 1061.61 1368.42 1060.88 1368.42 1059.61 1368.1 1058.73 1367.47 1058.23 1366.83 1057.73 1365.83 1057.44 1364.45 1057.36L1364.89 1055.37 1381.1 1055.37 1380.66 1057.36C1379.63 1057.57 1378.9 1057.82 1378.45 1058.09 1378 1058.36 1377.61 1058.76 1377.25 1059.3 1376.9 1059.84 1376.54 1060.69 1376.16 1061.84 1375.78 1062.98 1375.31 1064.85 1374.74 1067.45L1367.81 1098.9C1367.46 1100.49 1367.23 1101.76 1367.12 1102.69 1367.01 1103.62 1366.96 1104.46 1366.96 1105.22 1366.96 1106.44 1367.26 1107.29 1367.87 1107.79 1368.48 1108.29 1369.5 1108.6 1370.93 1108.71L1370.49 1110.69 1354.28 1110.69 1354.72 1108.71C1355.75 1108.54 1356.52 1108.28 1357.03 1107.92 1357.54 1107.55 1357.98 1107.04 1358.33 1106.4 1358.68 1105.75 1359 1104.96 1359.3 1104.02 1359.6 1103.09 1360.04 1101.29 1360.64 1098.61L1363.96 1083.58 1342.2 1083.58 1338.83 1098.9C1338.54 1100.25 1338.32 1101.36 1338.19 1102.24 1338.05 1103.12 1337.98 1104.11 1337.98 1105.22 1337.98 1106.38 1338.25 1107.22 1338.79 1107.73 1339.33 1108.25 1340.39 1108.57 1341.96 1108.71L1341.51 1110.69 1325.3 1110.69 1325.74 1108.71C1326.77 1108.54 1327.54 1108.28 1328.05 1107.92 1328.57 1107.55 1329 1107.04 1329.35 1106.4 1329.7 1105.75 1330.03 1104.96 1330.32 1104.02 1330.62 1103.09 1331.07 1101.29 1331.66 1098.61L1338.55 1067.41C1338.79 1066.3 1339 1065.12 1339.18 1063.86 1339.35 1062.61 1339.44 1061.61 1339.44 1060.88 1339.44 1059.61 1339.13 1058.73 1338.49 1058.23 1337.86 1057.73 1336.85 1057.44 1335.47 1057.36Z" fill-rule="evenodd"/><text fill="#000000" fill-opacity="0" font-family="Arial,Arial_MSFontService,sans-serif" font-size="55.3198" x="1325.3" y="1103.78">𝐻</text><path d="M3168.18 1740.72 3251.47 1883.19" stroke="#000000" stroke-width="6.875" stroke-miterlimit="8" fill="none" fill-rule="evenodd"/><path d="M0 0 138.6 77.4915" stroke="#000000" stroke-width="6.875" stroke-miterlimit="8" fill="none" fill-rule="evenodd" transform="matrix(-0.892511 -0.451026 -0.451026 0.892511 3251.47 1883.19)"/><path d="M3123.93 1886.24C3128.14 1841.6 3150.35 1800.59 3185.43 1772.66" stroke="#000000" stroke-width="6.875" stroke-miterlimit="8" fill="none" fill-rule="evenodd"/><path d="M3142.33 1828.25C3145.31 1822.34 3151.03 1819.23 3155.1 1821.28 3159.16 1823.34 3160.04 1829.79 3157.06 1835.69 3154.08 1841.59 3148.36 1844.7 3144.3 1842.65 3140.23 1840.59 3139.35 1834.15 3142.33 1828.25Z" stroke="#000000" stroke-width="6.875" stroke-miterlimit="8" fill-rule="evenodd"/></g></svg>
