<svg width="1265" height="1000" xmlns="http://www.w3.org/2000/svg" xmlns:xlink="http://www.w3.org/1999/xlink" xml:space="preserve" overflow="hidden"><defs><clipPath id="clip0"><rect x="688" y="208" width="1265" height="1000"/></clipPath></defs><g clip-path="url(#clip0)" transform="translate(-688 -208)"><rect x="688" y="263" width="1200" height="945" fill="#FFFFFF"/><path d="M0 0 0.000360892 735.542" stroke="#156082" stroke-width="6.875" stroke-miterlimit="8" stroke-dasharray="55 20.625" fill="none" fill-rule="evenodd" transform="matrix(1 0 0 -1 743.5 1035.04)"/><path d="M0 0 0.000360892 735.542" stroke="#156082" stroke-width="6.875" stroke-miterlimit="8" stroke-dasharray="55 20.625" fill="none" fill-rule="evenodd" transform="matrix(1 0 0 -1 1846.5 1035.04)"/><text font-family="Cambria Math,Cambria Math_MSFontService,sans-serif" font-weight="400" font-size="41" transform="matrix(1 0 0 1 1348.56 613)">←</text><text font-family="Aptos,Aptos_MSFontService,sans-serif" font-weight="400" font-size="41" transform="matrix(1 0 0 1 1391.53 613)">Periodic in </text><text font-family="Cambria Math,Cambria Math_MSFontService,sans-serif" font-weight="400" font-size="41" transform="matrix(1 0 0 1 1588.04 613)">𝑥</text><text font-family="Cambria Math,Cambria Math_MSFontService,sans-serif" font-weight="400" font-size="41" transform="matrix(1 0 0 1 1619.64 613)">→</text><text font-family="Cambria Math,Cambria Math_MSFontService,sans-serif" font-weight="400" font-size="41" transform="matrix(1 0 0 1 817.813 1017)">𝑥</text><text font-family="Cambria Math,Cambria Math_MSFontService,sans-serif" font-weight="400" font-size="41" transform="matrix(1 0 0 1 852.28 1017)">=</text><text font-family="Cambria Math,Cambria Math_MSFontService,sans-serif" font-weight="400" font-size="41" transform="matrix(1 0 0 1 894.676 1017)">0</text><text font-family="Cambria Math,Cambria Math_MSFontService,sans-serif" font-weight="400" font-size="41" transform="matrix(1 0 0 1 1695.44 1014)">𝑥</text><text font-family="Cambria Math,Cambria Math_MSFontService,sans-serif" font-weight="400" font-size="41" transform="matrix(1 0 0 1 1729.91 1014)">=</text><text font-family="Cambria Math,Cambria Math_MSFontService,sans-serif" font-weight="400" font-size="41" transform="matrix(1 0 0 1 1772.31 1014)">𝐿</text><text font-family="Cambria Math,Cambria Math_MSFontService,sans-serif" font-weight="400" font-size="30" transform="matrix(1 0 0 1 1794.08 1023)">𝑥</text><text font-family="Cambria Math,Cambria Math_MSFontService,sans-serif" font-weight="400" font-size="41" transform="matrix(1 0 0 1 772.468 348)">𝑧</text><text font-family="Cambria Math,Cambria Math_MSFontService,sans-serif" font-weight="400" font-size="41" transform="matrix(1 0 0 1 804.688 348)">=</text><text font-family="Cambria Math,Cambria Math_MSFontService,sans-serif" font-weight="400" font-size="41" transform="matrix(1 0 0 1 847.084 348)">𝑧</text><text font-family="Cambria Math,Cambria Math_MSFontService,sans-serif" font-weight="400" font-size="30" transform="matrix(1 0 0 1 866.128 357)">t</text><path d="M742 463.844 898.136 463.844 898.136 474.156 742 474.156ZM892.98 453.531 923.917 469 892.979 484.469Z" fill="#0070C0"/><path d="M744 525.844 900.135 525.844 900.135 536.157 744 536.156ZM894.979 515.532 925.917 531 894.979 546.469Z" fill="#0070C0"/><path d="M744 582.844 900.135 582.844 900.135 593.157 744 593.156ZM894.979 572.532 925.917 588.001 894.979 603.469Z" fill="#0070C0"/><text fill="#0070C0" font-family="Cambria Math,Cambria Math_MSFontService,sans-serif" font-weight="400" font-size="41" transform="matrix(1 0 0 1 793.359 438)">𝑈</text><text fill="#0070C0" font-family="Cambria Math,Cambria Math_MSFontService,sans-serif" font-weight="400" font-size="30" transform="matrix(1 0 0 1 819.484 446)">g</text><text fill="#FF0000" font-family="Aptos,Aptos_MSFontService,sans-serif" font-weight="400" font-size="41" transform="matrix(1 0 0 1 882.783 899)">SST</text><text font-family="Cambria Math,Cambria Math_MSFontService,sans-serif" font-weight="400" font-size="41" transform="matrix(1 0 0 1 755.409 1097)">𝑧</text><text font-family="Cambria Math,Cambria Math_MSFontService,sans-serif" font-weight="400" font-size="41" transform="matrix(1 0 0 1 787.63 1097)">=</text><text font-family="Cambria Math,Cambria Math_MSFontService,sans-serif" font-weight="400" font-size="41" transform="matrix(1 0 0 1 830.026 1097)">0</text><path d="M0 0 1104.41 5.55269" stroke="#AEAEAE" stroke-width="6.875" stroke-miterlimit="8" stroke-dasharray="27.5 20.625" fill="none" fill-rule="evenodd" transform="matrix(1 0 0 -1 743.5 721.053)"/><text font-family="Cambria Math,Cambria Math_MSFontService,sans-serif" font-weight="400" font-size="41" transform="matrix(1 0 0 1 765.02 700)">𝑧</text><text font-family="Cambria Math,Cambria Math_MSFontService,sans-serif" font-weight="400" font-size="41" transform="matrix(1 0 0 1 797.241 700)">=</text><text font-family="Cambria Math,Cambria Math_MSFontService,sans-serif" font-weight="400" font-size="41" transform="matrix(1 0 0 1 839.636 700)">𝑧</text><text font-family="Cambria Math,Cambria Math_MSFontService,sans-serif" font-weight="400" font-size="30" transform="matrix(1 0 0 1 858.68 708)">st</text><path d="M1218.67 1034.12 1013.5 719.5" stroke="#C00000" stroke-width="6.875" stroke-linecap="square" stroke-miterlimit="8" stroke-dasharray="20.625 6.875" fill="none" fill-rule="evenodd"/><path d="M0 0 0.000360892 417.76" stroke="#C00000" stroke-width="6.875" stroke-linecap="square" stroke-miterlimit="8" stroke-dasharray="20.625 6.875" fill="none" fill-rule="evenodd" transform="matrix(1 0 0 -1 1013.5 720.26)"/><path d="M743.5 1034.5 1846.81 1034.5" stroke="#000000" stroke-width="20.625" stroke-miterlimit="8" fill="none" fill-rule="evenodd"/><path d="M743 1034C834.305 965.543 925.611 897.085 1017.44 897 1109.28 896.914 1201.64 965.201 1294 1033.49" stroke="#FF0000" stroke-width="10.3125" stroke-miterlimit="8" fill="none" fill-rule="evenodd"/><path d="M0 137C91.3055 68.5428 182.611 0.0855317 274.444 0 366.278-0.0855317 458.639 68.2007 551 136.487" stroke="#FF0000" stroke-width="10.3125" stroke-miterlimit="8" fill="none" fill-rule="evenodd" transform="matrix(1 0 0 -1 1294 1171)"/><path d="M743.5 299.5 1846.81 299.5" stroke="#000000" stroke-width="20.625" stroke-miterlimit="8" fill="none" fill-rule="evenodd"/><text fill="#C00000" font-family="Cambria Math,Cambria Math_MSFontService,sans-serif" font-weight="400" font-size="41" transform="matrix(1 0 0 1 1042.29 450)">𝑇</text><path d="M1180.08 418.838C1183.98 419.865 1186.97 422.084 1189.06 425.494 1191.15 428.904 1192.19 433.018 1192.19 437.836 1192.19 442.668 1191.15 446.782 1189.07 450.178 1186.98 453.575 1183.99 455.787 1180.08 456.815L1179.6 455.273C1182.68 454.245 1184.97 452.217 1186.47 449.187 1187.98 446.158 1188.73 442.307 1188.73 437.636 1188.73 433.125 1187.98 429.378 1186.48 426.395 1184.99 423.412 1182.67 421.407 1179.54 420.379ZM1083.55 418.838 1084.09 420.379C1080.97 421.407 1078.66 423.412 1077.16 426.395 1075.65 429.378 1074.9 433.125 1074.9 437.636 1074.9 442.307 1075.65 446.158 1077.16 449.187 1078.66 452.217 1080.95 454.245 1084.03 455.273L1083.55 456.815C1079.64 455.787 1076.65 453.575 1074.56 450.178 1072.48 446.782 1071.44 442.668 1071.44 437.836 1071.44 433.018 1072.49 428.904 1074.57 425.494 1076.66 422.084 1079.66 419.865 1083.55 418.838Z" fill="#C00000" fill-rule="evenodd"/><text fill="#C00000" font-family="Cambria Math,Cambria Math_MSFontService,sans-serif" font-weight="400" font-size="41" transform="matrix(1 0 0 1 1084.96 450)">𝑡</text><text fill="#C00000" font-family="Cambria Math,Cambria Math_MSFontService,sans-serif" font-weight="400" font-size="41" transform="matrix(1 0 0 1 1113.46 450)">=</text><text fill="#C00000" font-family="Cambria Math,Cambria Math_MSFontService,sans-serif" font-weight="400" font-size="41" transform="matrix(1 0 0 1 1155.86 450)">0</text><text font-family="Aptos,Aptos_MSFontService,sans-serif" font-weight="400" font-size="41" transform="matrix(1 0 0 1 763.288 262)">(a)</text></g></svg>